<svg xmlns="http://www.w3.org/2000/svg" version="1.2" baseProfile="tiny" width="100%" height="100%" viewBox="0 0 400 600" preserveAspectRatio="xMinYMin meet">
<g transform="scale(1 1) translate(0 0)">
<path fill="#5c3937" stroke="#000" stroke-width="6" d="M10 600s-10-70 50-70c10 0 0-10 60-20 0 0 50-210 80-210s80 210 80 210c60 10 50 20 60 20 60 0 50 70 50 70"/><path d="M71 545s46.9-3 82.1 10M329 545s-46.9-3-82.1 10m77.1-18s5.5-7.5 22-7m-271 7s-5.5-7.5-22-7"/>
</g>
<g transform="scale(1 1) translate(0 0)">
<path fill="#F00BA1" stroke="#000" stroke-width="6" d="M80 610s10-30 10-90l20-10s10 80 90 80 90-80 90-80l20 10c0 60 10 90 10 90z"/><path fill="#F00BA2" d="M85 575v25h230v-25h-65s-20 15-50 15-50-15-50-15z"/><path fill="none" stroke="#000" stroke-width="16" d="M90 520c0 60-10 90-10 90m230-90c0 60 10 90 10 90M110 510s10 80 90 80 90-80 90-80"/><path fill="none" stroke="#F00BA1" stroke-width="12" d="M90 520c0 60-10 90-10 90m230-90c0 60 10 90 10 90M110 510s10 80 90 80 90-80 90-80"/><path fill="none" stroke="#F00BA3" stroke-width="6" d="M90 520c0 60-10 90-10 90m230-90c0 60 10 90 10 90M110 510s10 80 90 80 90-80 90-80"/>
</g>
<g transform="translate(32 293.3) scale(1.47 1.47) translate(-7.353741496598639 -10.135374149659865) translate(14.360000000000003 -3)">
<path fill="#5c3937" stroke="#000" stroke-width="6" d="M43 8S3-12 3 28c0 45 40 30 40 30z"/>
</g>
<g transform="translate(322 293.3) scale(-1.47 1.47) translate(-38.646258503401356 -10.135374149659865) translate(14.360000000000003 -3)">
<path fill="#5c3937" stroke="#000" stroke-width="6" d="M43 8S3-12 3 28c0 45 40 30 40 30z"/>
</g>
<g transform="scale(0.888 1) translate(25.225225225225223 0)">
<path fill="#5c3937" stroke="#000" stroke-width="6" d="M200 100c100 0 150 60 150 200 0 70-10 90-30 130-10 20-60 50-70 60-20 20-20 10-50 10s-30 10-50-10c-10-10-60-40-70-60-20-40-30-60-30-130 0-140 50-200 150-200Z"/><path fill="rgba(0,0,0,0.19)" d="M200 410c30 0 50 10 50 10 30 0 90-15 90-120h10c0 70-10 90-30 130-10 20-60 50-70 60-20 20-20 10-50 10s-30 10-50-10c-10-10-60-40-70-60-20-40-30-60-30-130h10c0 105 60 120 90 120 0 0 20-10 50-10"/><path fill="rgba(0,0,0,0.19)" d="M60 300H50c0-140 50-200 150-200s150 60 150 200h-10v-10c0-5-10-20-15-25s-5-55-15-65c-40-40-60 0-110 0s-70-40-110 0c-10 10-10 60-15 65s-15 20-15 25z"/>
</g>
<g transform="translate(102.43516325508939 287.6) rotate(15 37.56483674491061 22.4)">
<path d="M5 35S17.08 5 40 5s30 30 30 30-7.15 7.92-30.07 7.92S5 35 5 35" style="fill:#f5f3ee"/><path d="M5 35.6C2.13 32.73 17.08 1.88 40 1.88S72.87 32.13 70 35 62.92 6.73 40 6.73 7.87 38.46 5 35.6" style="fill:#000"/><path d="M39.93 33.78c-4.53 0-8.2-3.66-8.2-8.2 0-4.53 3.67-8.19 8.2-8.19s8.19 3.66 8.19 8.19c0 4.54-3.66 8.2-8.19 8.2" style="fill:#000"/>
</g>
<g transform="translate(222.43516325508938 287.6) rotate(-15 37.56483674491061 22.4) scale(-1 1) translate(-75.12967348982122 0)">
<path d="M5 35S17.08 5 40 5s30 30 30 30-7.15 7.92-30.07 7.92S5 35 5 35" style="fill:#f5f3ee"/><path d="M5 35.6C2.13 32.73 17.08 1.88 40 1.88S72.87 32.13 70 35 62.92 6.73 40 6.73 7.87 38.46 5 35.6" style="fill:#000"/><path d="M39.93 33.78c-4.53 0-8.2-3.66-8.2-8.2 0-4.53 3.67-8.19 8.2-8.19s8.19 3.66 8.19 8.19c0 4.54-3.66 8.2-8.19 8.2" style="fill:#000"/>
</g>
<g transform="translate(101.05152592374387 261.3) rotate(15 38.94847407625614 8.7)">
<path fill="#272421" stroke="#000" d="M73 13c4.85-1.21 0-10-10-10S3 8 3 8s50 10 70 5Z"/>
</g>
<g transform="translate(221.05152592374387 261.3) rotate(-15 38.94847407625614 8.7) scale(-1 1) translate(-77.89694815251228 0)">
<path fill="#272421" stroke="#000" d="M73 13c4.85-1.21 0-10-10-10S3 8 3 8s50 10 70 5Z"/>
</g>
<g transform="translate(0 51.49291359400189) scale(-1 1) translate(-400 0)">
<path d="M167 382s10-8.86 33-9c16.67-.1 34 9 34 9s-11.33 21.31-34 22c-22.32.68-33-22-33-22" style="opacity:.05;mix-blend-mode:multiply;fill:#501414"/><path d="M176 384s14-4 24-4 24 4 24 4-8 8-24 8-24-8-24-8" style="fill:#fff"/><path d="M176 384s14-4 24-4 24 4 24 4-8 8-24 8-24-8-24-8Z" style="fill:none;stroke:#000;stroke-width:4"/><path d="M180 376c16-4 24-4 40 0" style="fill:none;stroke:#000;stroke-width:1"/><path d="M166 382s5 3.19 10 2m58-2s-5 3.19-10 2" style="fill:none;stroke:#000;stroke-width:4"/><path d="M185.71 400.69c15.15 4.14 16.29 3.86 29.15-.57" style="fill:none;stroke:#000;stroke-width:1"/>
</g>
<g transform="translate(144.4115 264.9735) scale(0.52 0.52) translate(51.312461538461534 96.94753846153846)">
<path fill="#5c3937" stroke="#000" stroke-width="5" d="M40.3 99.804c2.56 5.426 7.286 9.34 15.292 10.445 8.532-1.475 12.386-4.548 15.285-10.378"/>
</g>
<g transform="scale(0.888 1) translate(25.225225225225223 0)">
<defs><linearGradient id="a" x1="200" x2="200" y1="100" y2="310" gradientUnits="userSpaceOnUse"><stop offset="0" stop-color="rgba(0,0,0,.25)"/><stop offset="1" stop-color="rgba(0,0,0,0)"/></linearGradient></defs><g style="display:inline"><path d="M60 310H50v-10c0-140 50-200 150-200s150 60 150 200v10h-10v-20c0-5-10-20-15-25s-5-55-15-65c-40-40-56.429-38.095-106.429-38.095S130 160 90 200c-10 10-10 60-15 65s-15 20-15 25z" style="display:inline;opacity:1;fill:url(#a);stroke:none;stroke-width:1;stroke-miterlimit:4;stroke-dasharray:none"/></g><path fill="#272421" stroke="#000" stroke-width="3.787" d="M176.958 80.33c-1.666.356-3.656.694-4.42 1.005-.765.32-2.055.284-4.153.686s-4.817-.357-5.767.356c-.961.723-4.673-1.601-5.58 1.436-1.52.302-5.92-1.098-8.743-.275-2.813.832-5.969 2.177-6.978 2.973-1.03.814-2.96 1.857-4.303 2.332-1.353.467-3.078.714-3.842.54-.755-.174-3.004-1.702-4.739-1.09-1.735.623-3.73 3.203-4.69 3.432-.96.219-3.273-1.108-4.636-.394-1.362.722-2.397 3.27-2.745 3.43-2.989 1.372-1.8.579-2.989 1.372a31 31 0 0 1-2.656 1.381c-.05-.263-4.43-2.651-4.968.476-2.855.459-4.32 1.567-4.015 2.972-.94.796-2.85-1.446-2.802 2.543-2.752 1.235-1.103 2.36-4.573 2.232-3.087-.119-4.077-.32-5.01 3.495-1.754 1.034-4.017 2.314-4.34 3.53-.265.989-.564 3.211-1.437 5.196-5.571 1.426-2.372 6.34-7.36 10.364-3.157 2.561-1.891 5.497-3.489 6.741-2.087 1.637-3.748 11.4-4.287 13.184-.421 1.372-.966 8.114-1.896 12.835-2.045 9.632-1.918 6.557-2.956 12.805-.414 6.977-1.54 6.943-2.291 14.791-1.65 9.93-4.07 25.692-4.154 27.305 13.07-1.575 15.468-.457 24.767-.598 2.688-7.24 12.988-17.017 31.388-17.386 26.676-.176 68.995.364 90.96.39 24.425-.18 49.48.895 73.733 1.779 17.401.59 34.288 6.477 39.775 16.265 11.669-1.34 14.105.89 24.676.232-.985-8.536-3.087-26.773-4.306-32.295-1.13-4.084-.635-7.333-2.476-10.758-1.328-6.785-1.608-7.98-2.868-15.269-2.678-8.718-1.723-10.969-2.993-12.874-.233-2.265-.107-4.023-.46-5.542-.412-1.838.209-3.338-1.056-4.445-1.078-.942-1.311-1.855-1.615-3.108-.304-1.226-.204-2.203-1.027-2.899-.833-.695-.944-4.649-2.032-5.024-1.068-.384-1.228-1.815-1.522-2.556.241-1.258-1.467-2.26-2.04-2.95-.783-.944-2.675-1.546-4.297-1.889-.296-1.7-1.162-2.397-2.55-3.613-.334-.924-3.588-2.054-5.303-3.426-1.725-1.372-1.592-4.738-5.192-4.948-1.705-1.464-5.55-2.973-5.55-2.973s-1.223-4.135-4.705-4.199c-1.93-1.61-3.95-3.522-7.028-4.519-2.509-.795-6.032-.191-7.571-.438-1.53-.247-2.365-4.291-6.439-2.296-1.529-.33-4.156-.073-4.156-.073-.97-.768-2.156-1.39-2.646-1.4-.47-.008-1.49.641-2.755-.612-3.09-2.418-4.237-.164-6.76-1.152-1.068-.42-4.008-2.223-6.606-2.214-4.626.01-4.734 1.446-8.017-1.033-2.666-2.012-5.237 1.721-7.05 1.804-1.814.082-2.794-.348-5.038-2.196-2.313-1.902-3.245-2.295-5.558-2.332-1.911-.028-3.371.347-4.724 1.216-1.94 1.263-1.96 1.263-2.842.156-.48-.604-2.568-1.683-4.636-2.397l-5.428.175-4.903.84c-5.92-2.057-7.581-1.16-10.61-.877-2.097.201-6.002 1.19-7.384.906a656 656 0 0 1-5.337-1.126z"/>
</g>
</svg>